<svg width="93" height="93" viewBox="0 0 93 93" fill="none" xmlns="http://www.w3.org/2000/svg">
<rect width="93" height="93" rx="5" fill="#242424"/>
<path d="M36.713 21.4522L41.2348 25.7478C42.9304 27.3304 43.8348 29.4783 43.8348 31.8522C43.8348 34.113 44.7391 36.2609 46.3217 37.8435L46.887 38.4087L52.087 21.5652" fill="white"/>
<path d="M21.3391 36.487L27.5565 36.2609C29.8174 36.1478 32.0783 37.0522 33.6609 38.6348C35.2435 40.2174 37.3913 41.0087 39.6522 41.0087H40.4435L32.0783 25.5217" fill="white"/>
<path d="M21.3391 57.9652L25.5217 53.4435C27.1043 51.7478 29.2522 50.7304 31.513 50.7304C33.7739 50.7304 35.8087 49.713 37.3913 48.1304L37.9565 47.5652L21 42.7043" fill="white"/>
<path d="M36.713 72.887L36.3739 66.6696C36.2609 64.4087 37.0522 62.1478 38.6348 60.4522C40.1044 58.8696 41.0087 56.6087 40.8957 54.4609V53.6696L25.5217 62.3739" fill="white"/>
<path d="M58.1913 72.4348L53.5565 68.3652C51.8609 66.8957 50.8435 64.7478 50.7304 62.3739C50.6174 60.1131 49.6 58.0783 48.0174 56.4957L47.4522 55.9304L42.9304 73" fill="white"/>
<path d="M72.8869 56.7217L66.6696 57.1739C64.4087 57.4 62.1478 56.6087 60.4522 55.0261C58.7565 53.5565 56.6087 52.7652 54.3478 52.8782H53.5565L62.6 68.0261" fill="white"/>
<path d="M71.8696 35.3565L67.913 40.1044C66.4435 41.8 64.2956 42.9304 62.0348 43.0435C59.7739 43.1565 57.7391 44.1739 56.2695 45.8696L55.8174 46.4348L73 50.5044" fill="white"/>
<path d="M55.9304 21L56.4957 27.2174C56.7217 29.4783 56.0435 31.7391 54.4609 33.5478C52.9913 35.2435 52.3131 37.3913 52.4261 39.6522L52.5391 40.4435L67.4609 31.0609" fill="white"/>
</svg>
